PathFileType	4	(X/Y/Z)	C:/Users/beibeiliu/ov580/test_trc/User2\sequence.2_training_dense_left.trc
DataRate	CameraRate	NumFrames	NumMarkers	Units	OrigDataRate	OrigDataStartFrame	OrigNumFrames
120	120	12	19	mm	120	269	307
Frame#	Time	ThumbCMC			ThumbMCP			ThumbIP			ThumbTip			IndexMCP			IndexPIP			IndexTip			MiddleMCP			MiddlePIP			MiddleTip			RingMCP			RingPIP			RingTip			PinkyMCP			PinkyPIP			PinkyTip			BackHand1			BackHand2			BackHand3	
		X0	Y0	Z0	X1	Y1	Z1	X2	Y2	Z2	X3	Y3	Z3	X4	Y4	Z4	X5	Y5	Z5	X6	Y6	Z6	X7	Y7	Z7	X8	Y8	Z8	X9	Y9	Z9	X10	Y10	Z10	X11	Y11	Z11	X12	Y12	Z12	X13	Y13	Z13	X14	Y14	Z14	X15	Y15	Z15	X16	Y16	Z16	X17	Y17	Z17	X18	Y18	Z18	
268	2.23333	-241.775	53.7815	82.4733	-231.269	41.542	48.1363	-227.186	27.3186	12.6991	-224.173	6.75825	-1.25322	-292.544	9.82398	31.3197	-279.188	0.00140007	6.4267	-240.347	3.30089	-0.216493	-288.772	-15.4473	36.7695	-264.13	-21.4819	7.52087	-231.721	-9.43982	7.41734	-275.266	-33.0295	45.1657	-256.222	-32.6139	19.1638	-227.156	-18.0481	19.1251	-262.018	-44.4826	58.7324	-246.014	-41.2888	30.6304	-218.017	-24.2965	25.0299	-271.724	-10.7188	107.179	-254.79	5.23073	135.166	-274.35	27.3549	107.198	
269	2.24167	-246.429	55.9418	85.2632	-237.122	45.2324	46.6247	-232.536	29.881	17.3684	-230.517	4.99239	-2.72028	-294.105	4.21335	39.669	-280.234	-6.33284	10.1703	-247.748	4.59198	1.32242	-287.552	-20.5965	43.8883	-268.496	-24.6919	12.1089	-232.536	-7.70585	11.8784	-274.455	-32.7819	44.1527	-252.002	-31.9684	18.7675	-220.881	-13.4654	22.7508	-257.71	-43.7673	62.438	-241.519	-41.2908	31.9395	-218.083	-24.4189	26.2347	-266.447	-12.5415	108.732	-255.79	4.55363	136.003	-273.194	29.0347	111.145	
270	2.25	-245.071	54.0862	91.6884	-237.52	49.9922	50.7907	-234.391	37.836	18.5567	-232.599	17.2486	0.252932	-296.408	10.024	42.4804	-282.073	0.998858	13.6704	-251.202	11.2608	3.38443	-290.68	-11.2018	40.4242	-270.264	-14.8979	12.08	-232.324	4.989	16.07	-275.911	-25.8812	46.0954	-256.012	-28.0356	20.693	-224.571	-2.40012	24.6633	-258.98	-37.4927	62.145	-246.728	-32.7773	32.2496	-216.538	-13.4384	27.0022	-266.447	-10.3794	109.584	-251.067	3.49724	136.767	-273.221	28.5354	116.084	
271	2.25833	-241.352	61.247	95.6616	-234.624	58.9335	55.4529	-233.317	51.3148	22.8114	-235.293	28.6983	5.58775	-297.865	26.1189	43.8419	-284.674	22.2141	14.3949	-249.766	26.9065	5.91099	-292.324	2.36896	41.4049	-274.839	5.30245	12.1804	-237.392	16.893	15.1197	-279.161	-12.0882	47.9397	-260.721	-8.25309	19.3496	-228.955	5.84526	26.8911	-264.243	-24.9863	58.0984	-246.431	-20.0843	27.5161	-220.02	-1.28713	33.224	-268.386	-6.09709	108.15	-251.218	6.40649	138.416	-269.185	34.031	117.283	
272	2.26667	-232.804	67.9325	102.435	-228.418	64.9251	65.8267	-232.078	61.8499	25.6847	-233.975	47.3299	7.61292	-295.377	42.562	51.8808	-287.118	42.9776	20.8503	-253.888	41.7611	10.1721	-295.21	21.9432	44.3359	-272.3	21.9167	13.9819	-238.574	31.2257	17.9168	-285.057	4.60383	44.7765	-268.744	8.0361	20.4895	-233.985	20.4396	30.3401	-271.622	-13.8028	58.3877	-254.717	-6.64906	27.4832	-227.328	4.90714	33.6872	-269.139	3.13054	112.378	-251.139	10.8391	140.667	-264.394	42.8883	123.264	
273	2.275	-228.253	70.0733	105.171	-221.139	69.3827	70.126	-225.966	67.8389	33.1502	-231.482	56.3953	10.6362	-291.863	65.6273	57.5913	-282.97	64.0767	23.8805	-249.127	60.1877	13.6182	-294.47	41.6668	49.584	-277.632	38.3056	16.9534	-237.547	41.5809	18.7471	-289.164	17.8522	45.1658	-271.435	23.3879	21.5728	-233.397	28.3269	33.9589	-277.625	0.601903	57.388	-257.63	5.28585	26.7644	-231.069	17.2092	34.8382	-272.966	12.8084	112.925	-252.946	12.9241	140.207	-262.174	46.1151	125.674	
274	2.28333	-222.661	66.2143	108.42	-214.795	71.0566	71.3696	-218.077	73.4084	33.7828	-226.548	61.5855	9.97514	-286.429	70.574	58.1424	-277.683	70.6944	26.6003	-243.581	61.8312	16.5263	-292.753	52.6136	50.361	-272.985	52.962	17.6148	-235.748	45.5424	18.4677	-288.999	27.1473	46.4947	-269.884	28.5385	21.69	-234.514	29.5155	32.8159	-280.951	6.3683	53.2142	-259.49	11.2047	27.611	-228.246	18.2506	37.5648	-274.487	21.123	110.539	-257.477	15.8363	136.768	-259.227	50.2413	129.9	
275	2.29167	-219.145	65.803	107.734	-211.821	66.669	71.2536	-214.928	68.8874	34.4392	-227.307	56.4666	8.47367	-282.826	75.9753	57.7796	-270.162	72.6469	23.6062	-240.096	59.8907	15.7625	-289.567	53.2658	48.039	-268.605	52.1489	16.9475	-233.401	36.6861	19.5325	-288.125	31.5692	49.081	-268.271	28.0303	21.1374	-230.977	27.6978	32.6421	-282.075	10.4077	55.5645	-261.858	13.1913	28.2074	-229.783	15.1397	38.3883	-276.206	18.2666	109.865	-261.088	12.298	137.941	-258.832	51.7025	126.872	
276	2.3	-219.819	56.5177	106.908	-212.622	58.4117	68.0724	-214.449	56.3911	34.9692	-225.495	45.6911	9.40493	-281.873	69.0084	50.2112	-273.875	63.4867	22.7375	-243.278	49.0773	13.8219	-290.253	45.7121	45.1943	-270.536	39.9209	15.0788	-231.686	27.4179	15.9717	-288.798	19.9077	46.6784	-270.65	16.1469	20.3437	-234.736	17.3137	26.4313	-284.125	1.63985	51.8998	-265.343	0.140192	26.6379	-231.425	3.91068	32.1305	-278.553	16.7094	110.85	-261.321	10.6927	137.269	-259.523	48.5359	126.441	
277	2.30833	-221.047	51.9515	100.92	-217.064	46.2173	63.359	-218.119	40.4534	28.4407	-226.091	27.2155	5.35588	-285.5	51.4038	43.2101	-273.664	43.9658	14.3757	-241.399	30.7793	8.36048	-292.592	27.2083	44.0266	-275.661	18.5704	12.9731	-233.235	8.57035	13.7098	-289.904	6.1034	44.4421	-272.053	-4.05725	19.8871	-234.119	2.35968	24.597	-283.612	-14.4084	55.5456	-264.008	-12.6161	28.1343	-232.167	-12.5267	27.259	-279.193	4.94732	109.435	-260.619	6.658	137.951	-263.235	39.7788	118.05	
278	2.31667	-228.111	46.8064	94.2279	-221.159	38.8868	54.6213	-223.339	26.7087	21.591	-229.137	7.93835	-0.228267	-292	29.0448	38.4449	-278.287	17.2902	11.2802	-246.251	9.16094	4.43884	-295.522	6.03495	41.2632	-275.932	-6.7416	11.0638	-236.632	-10.0903	12.7566	-287.883	-19.8351	47.5524	-266.83	-26.7798	21.9228	-233.476	-18.9067	23.0338	-278.832	-37.5191	61.0779	-259.106	-33.752	31.0377	-232.207	-26.3666	29.2569	-277.612	-8.4756	109.997	-260.732	1.66342	139.556	-267.889	32.5178	113.438	
279	2.325	-238.689	41.5356	88.3093	-229.694	27.5124	54.8458	-228.042	14.9549	17.9005	-229.844	-6.82376	1.33795	-296.01	3.12203	38.7971	-282.156	-4.429	11.7687	-246.649	-8.4668	4.99962	-295.403	-20.508	42.4624	-274.647	-29.1451	14.126	-236.194	-24.026	13.1398	-282.456	-40.1095	49.7007	-260.175	-44.1662	24.8359	-229.431	-28.356	24.7874	-269.177	-52.4257	64.886	-253.765	-54.3278	38.0642	-224.607	-41.7931	31.9539	-277.299	-16.2428	109.387	-260.76	-8.11053	140.301	-272.814	21.8024	116.406	
